<mxfile modified="2019-10-25T15:11:43.396Z" host="www.draw.io" agent="Mozilla/5.0 (Windows NT 10.0; Win64; x64) AppleWebKit/537.36 (KHTML, like Gecko) Chrome/77.0.3865.120 Safari/537.36" etag="Z1r0z6eIigUB5thEaeh-" version="12.1.7" type="github" pages="1">
  <diagram name="Page-1" id="97a40813-6b03-0c74-37c1-0168de264b11">
    <mxGraphModel dx="1235" dy="962" grid="1" gridSize="10" guides="1" tooltips="1" connect="1" arrows="1" fold="1" page="1" pageScale="1" pageWidth="500" pageHeight="300" background="#ffffff" math="0" shadow="0">
      <root>
        <mxCell id="0"/>
        <mxCell id="1" parent="0"/>
        <mxCell id="yBwnGZZojRsTkvd7AFwB-1" value="Paper" style="text;html=1;fontSize=30;fontColor=#004C99;fontStyle=1;verticalAlign=middle;" vertex="1" parent="1">
          <mxGeometry x="308.5" y="119.5" width="100" height="40" as="geometry"/>
        </mxCell>
        <mxCell id="yBwnGZZojRsTkvd7AFwB-2" value="&lt;div&gt;Babylonian Programming&lt;br&gt;&lt;/div&gt;" style="text;html=1;resizable=0;points=[];autosize=1;align=left;verticalAlign=middle;fontSize=20;fontColor=#004C99;fontStyle=1;" vertex="1" parent="1">
          <mxGeometry x="473" y="215" width="240" height="30" as="geometry"/>
        </mxCell>
        <mxCell id="yBwnGZZojRsTkvd7AFwB-3" value="Live Programming Web-components" style="text;html=1;fontSize=20;fontColor=#004C99;fontStyle=1;verticalAlign=middle;" vertex="1" parent="1">
          <mxGeometry x="483" y="20" width="340" height="30" as="geometry"/>
        </mxCell>
        <mxCell id="yBwnGZZojRsTkvd7AFwB-4" value="" style="endArrow=none;html=1;shadow=0;strokeColor=#CCCCCC;strokeWidth=3;fontSize=14;fontColor=#004C99;curved=1;verticalAlign=middle;" edge="1" parent="1" source="yBwnGZZojRsTkvd7AFwB-2" target="yBwnGZZojRsTkvd7AFwB-1">
          <mxGeometry width="50" height="50" relative="1" as="geometry">
            <mxPoint x="625.333333333333" y="395" as="sourcePoint"/>
            <mxPoint x="404" y="199" as="targetPoint"/>
            <Array as="points">
              <mxPoint x="394" y="209"/>
            </Array>
          </mxGeometry>
        </mxCell>
        <mxCell id="yBwnGZZojRsTkvd7AFwB-5" value="" style="endArrow=none;html=1;shadow=0;strokeColor=#CCCCCC;strokeWidth=3;fontSize=14;fontColor=#004C99;curved=1;verticalAlign=middle;" edge="1" parent="1" source="yBwnGZZojRsTkvd7AFwB-3" target="yBwnGZZojRsTkvd7AFwB-1">
          <mxGeometry width="50" height="50" relative="1" as="geometry">
            <mxPoint x="714.333333333333" y="167.5" as="sourcePoint"/>
            <mxPoint x="497.15189873417694" y="195.99999999999977" as="targetPoint"/>
            <Array as="points">
              <mxPoint x="524" y="79"/>
            </Array>
          </mxGeometry>
        </mxCell>
        <mxCell id="yBwnGZZojRsTkvd7AFwB-6" value="" style="edgeStyle=none;orthogonalLoop=1;jettySize=auto;html=1;shadow=0;endArrow=none;strokeColor=#CCCCCC;strokeWidth=1;fontSize=14;fontColor=#004C99;" edge="1" parent="1" source="yBwnGZZojRsTkvd7AFwB-7" target="yBwnGZZojRsTkvd7AFwB-8">
          <mxGeometry relative="1" as="geometry">
            <mxPoint x="134.03125" y="144.5" as="targetPoint"/>
          </mxGeometry>
        </mxCell>
        <mxCell id="yBwnGZZojRsTkvd7AFwB-7" value="Drafts" style="text;html=1;fontSize=20;fontColor=#004C99;fontStyle=1;verticalAlign=middle;" vertex="1" parent="1">
          <mxGeometry x="180" y="64.5" width="70" height="30" as="geometry"/>
        </mxCell>
        <mxCell id="yBwnGZZojRsTkvd7AFwB-8" value="Aysnc Scopes in COP" style="text;html=1;fontSize=20;fontColor=#004C99;fontStyle=1;verticalAlign=middle;" vertex="1" parent="1">
          <mxGeometry x="30" y="20" width="210" height="30" as="geometry"/>
        </mxCell>
        <mxCell id="yBwnGZZojRsTkvd7AFwB-9" value="" style="endArrow=none;html=1;shadow=0;strokeColor=#CCCCCC;strokeWidth=3;fontSize=14;fontColor=#004C99;curved=1;verticalAlign=middle;" edge="1" parent="1" source="yBwnGZZojRsTkvd7AFwB-7" target="yBwnGZZojRsTkvd7AFwB-1">
          <mxGeometry width="50" height="50" relative="1" as="geometry">
            <mxPoint x="648.3173076923076" y="250" as="sourcePoint"/>
            <mxPoint x="508.318181818182" y="122.99999999999977" as="targetPoint"/>
            <Array as="points">
              <mxPoint x="234" y="79"/>
            </Array>
          </mxGeometry>
        </mxCell>
        <mxCell id="yBwnGZZojRsTkvd7AFwB-10" value="Babylonian Programming" style="whiteSpace=wrap;html=1;fontSize=20;fontColor=#004C99;fontStyle=1;align=left;strokeColor=none;fillColor=none;gradientColor=none;" vertex="1" parent="1">
          <mxGeometry x="89" y="245" width="314" height="22" as="geometry"/>
        </mxCell>
        <mxCell id="yBwnGZZojRsTkvd7AFwB-11" style="edgeStyle=none;orthogonalLoop=1;jettySize=auto;html=1;shadow=0;endArrow=none;strokeColor=#CCCCCC;strokeWidth=3;fontSize=14;fontColor=#004C99;" edge="1" parent="1" source="yBwnGZZojRsTkvd7AFwB-17" target="yBwnGZZojRsTkvd7AFwB-10">
          <mxGeometry relative="1" as="geometry"/>
        </mxCell>
        <mxCell id="yBwnGZZojRsTkvd7AFwB-12" style="edgeStyle=none;orthogonalLoop=1;jettySize=auto;html=1;shadow=0;endArrow=none;strokeColor=#CCCCCC;strokeWidth=3;fontSize=14;fontColor=#004C99;" edge="1" parent="1" source="yBwnGZZojRsTkvd7AFwB-17" target="yBwnGZZojRsTkvd7AFwB-18">
          <mxGeometry relative="1" as="geometry"/>
        </mxCell>
        <mxCell id="yBwnGZZojRsTkvd7AFwB-13" style="edgeStyle=none;orthogonalLoop=1;jettySize=auto;html=1;shadow=0;endArrow=none;strokeColor=#CCCCCC;strokeWidth=3;fontSize=14;fontColor=#004C99;" edge="1" parent="1" source="yBwnGZZojRsTkvd7AFwB-17" target="yBwnGZZojRsTkvd7AFwB-20">
          <mxGeometry relative="1" as="geometry"/>
        </mxCell>
        <mxCell id="yBwnGZZojRsTkvd7AFwB-14" style="edgeStyle=none;orthogonalLoop=1;jettySize=auto;html=1;shadow=0;endArrow=none;strokeColor=#CCCCCC;strokeWidth=3;fontSize=14;fontColor=#004C99;" edge="1" parent="1" source="yBwnGZZojRsTkvd7AFwB-17" target="yBwnGZZojRsTkvd7AFwB-22">
          <mxGeometry relative="1" as="geometry"/>
        </mxCell>
        <mxCell id="yBwnGZZojRsTkvd7AFwB-15" style="edgeStyle=none;orthogonalLoop=1;jettySize=auto;html=1;shadow=0;endArrow=none;strokeColor=#CCCCCC;strokeWidth=3;fontSize=14;fontColor=#004C99;" edge="1" parent="1" source="yBwnGZZojRsTkvd7AFwB-17" target="yBwnGZZojRsTkvd7AFwB-19">
          <mxGeometry relative="1" as="geometry"/>
        </mxCell>
        <mxCell id="yBwnGZZojRsTkvd7AFwB-16" style="edgeStyle=none;orthogonalLoop=1;jettySize=auto;html=1;shadow=0;endArrow=none;strokeColor=#CCCCCC;strokeWidth=3;fontSize=14;fontColor=#004C99;" edge="1" parent="1" source="yBwnGZZojRsTkvd7AFwB-17" target="yBwnGZZojRsTkvd7AFwB-21">
          <mxGeometry relative="1" as="geometry"/>
        </mxCell>
        <mxCell id="yBwnGZZojRsTkvd7AFwB-17" value="Research" style="text;html=1;strokeColor=none;fillColor=none;align=left;verticalAlign=middle;labelPosition=center;verticalLabelPosition=middle;labelBorderColor=none;fontSize=30;fontColor=#004C99;fontStyle=1;" vertex="1" parent="1">
          <mxGeometry x="267" y="372.10343143857756" width="140" height="40" as="geometry"/>
        </mxCell>
        <mxCell id="yBwnGZZojRsTkvd7AFwB-18" value="Active Expressions" style="html=1;fontSize=20;fontColor=#004C99;fontStyle=1;align=left;strokeColor=none;fillColor=none;gradientColor=none;" vertex="1" parent="1">
          <mxGeometry x="57" y="345.10343143857756" width="180" height="30" as="geometry"/>
        </mxCell>
        <mxCell id="yBwnGZZojRsTkvd7AFwB-19" value="ContextJS" style="html=1;fontSize=20;fontColor=#004C99;fontStyle=1;align=left;strokeColor=none;fillColor=none;gradientColor=none;" vertex="1" parent="1">
          <mxGeometry x="387.5" y="435.10343143857756" width="110" height="30" as="geometry"/>
        </mxCell>
        <mxCell id="yBwnGZZojRsTkvd7AFwB-20" value="Live Programming" style="html=1;fontSize=20;fontColor=#004C99;fontStyle=1;align=left;strokeColor=none;fillColor=none;gradientColor=none;" vertex="1" parent="1">
          <mxGeometry x="89" y="441.10343143857756" width="180" height="30" as="geometry"/>
        </mxCell>
        <mxCell id="yBwnGZZojRsTkvd7AFwB-21" value="Self-supporting Systems" style="html=1;fontSize=20;fontColor=#004C99;fontStyle=1;align=left;strokeColor=none;fillColor=none;gradientColor=none;" vertex="1" parent="1">
          <mxGeometry x="363" y="319.10343143857756" width="230" height="30" as="geometry"/>
        </mxCell>
        <mxCell id="yBwnGZZojRsTkvd7AFwB-22" value="Lively Wiki" style="html=1;fontSize=20;fontColor=#004C99;fontStyle=1;align=left;strokeColor=none;fillColor=none;gradientColor=none;" vertex="1" parent="1">
          <mxGeometry x="272" y="510.10343143857756" width="110" height="30" as="geometry"/>
        </mxCell>
      </root>
    </mxGraphModel>
  </diagram>
</mxfile>
